<?xml version="1.0" encoding="UTF-8" standalone="no"?>
<!-- Created with Inkscape (http://www.inkscape.org/) -->

<svg
   xmlns:dc="http://purl.org/dc/elements/1.1/"
   xmlns:cc="http://creativecommons.org/ns#"
   xmlns:rdf="http://www.w3.org/1999/02/22-rdf-syntax-ns#"
   xmlns:svg="http://www.w3.org/2000/svg"
   xmlns="http://www.w3.org/2000/svg"
   xmlns:xlink="http://www.w3.org/1999/xlink"
   xmlns:sodipodi="http://sodipodi.sourceforge.net/DTD/sodipodi-0.dtd"
   xmlns:inkscape="http://www.inkscape.org/namespaces/inkscape"
   width="2048"
   height="1152"
   viewBox="0 0 1920.0001 1080"
   id="svg5312"
   version="1.1"
   inkscape:version="0.92.1 unknown"
   sodipodi:docname="wallpaper.svg"
   inkscape:export-filename="/home/manjit/github/Horizon/mockups/artifacts/wallpaper.png"
   inkscape:export-xdpi="96"
   inkscape:export-ydpi="96">
  <defs
     id="defs5314">
    <inkscape:path-effect
       effect="envelope"
       id="path-effect5237"
       is_visible="true"
       yy="true"
       xx="true"
       bendpath1="m -258.82392,306.58277 h 63.69938"
       bendpath2="M -195.12454,306.58277 V 367.164"
       bendpath3="m -258.82392,367.164 h 63.69938"
       bendpath4="M -258.82392,306.58277 V 367.164" />
    <inkscape:path-effect
       effect="envelope"
       id="path-effect5235"
       is_visible="true"
       yy="true"
       xx="true"
       bendpath1="m 165.49329,-148.7511 16.76549,-1.19364"
       bendpath2="M 181.9594,-150.27316 237.83667,-4.0556758"
       bendpath3="m 185.62011,-4.0556758 h 52.21656"
       bendpath4="M 166.26042,-148.45786 185.62011,-4.0556758"
       bendpath1-nodetypes="cc"
       bendpath2-nodetypes="cc"
       bendpath4-nodetypes="cc" />
    <linearGradient
       inkscape:collect="always"
       id="linearGradient5219">
      <stop
         style="stop-color:#000000;stop-opacity:1"
         offset="0"
         id="stop5215" />
      <stop
         style="stop-color:#5570e8;stop-opacity:0;"
         offset="1"
         id="stop5217" />
    </linearGradient>
    <clipPath
       id="clipPath5202"
       clipPathUnits="userSpaceOnUse">
      <path
         sodipodi:type="star"
         style="opacity:1;fill:#ffffff;fill-opacity:1;fill-rule:nonzero;stroke:none;stroke-width:1.0561614;stroke-linecap:round;stroke-miterlimit:4;stroke-dasharray:none;stroke-dashoffset:0;stroke-opacity:1"
         id="path5204"
         sodipodi:sides="5"
         sodipodi:cx="210.41579"
         sodipodi:cy="-31.507545"
         sodipodi:r1="27.778549"
         sodipodi:r2="23.233248"
         sodipodi:arg1="-1.0959917"
         sodipodi:arg2="-0.46767311"
         inkscape:flatsided="true"
         inkscape:rounded="0"
         inkscape:randomized="0"
         d="m 223.32386,-56.460499 c 4.90717,9.716356 9.81434,19.432712 14.72151,29.149069 -7.72441,7.669514 -15.44881,15.339029 -23.17322,23.0085434 -0.37754,-0.1940665 -28.6658,-14.7349404 -29.04334,-14.9290074 1.74115,-10.745059 3.48229,-21.490118 5.22344,-32.235177 -0.90344,0.13979 33.17505,-5.133219 32.27161,-4.993428 z"
         inkscape:transform-center-x="-0.25982864"
         inkscape:transform-center-y="2.2705275"
         transform="matrix(0.93503269,0.05674565,-0.05674752,0.93501584,-714.05749,-106.25989)" />
    </clipPath>
    <linearGradient
       inkscape:collect="always"
       xlink:href="#linearGradient5219"
       id="linearGradient5221"
       x1="216.68799"
       y1="-12.685977"
       x2="177.82521"
       y2="-148.77475"
       gradientUnits="userSpaceOnUse" />
    <meshgradient
       inkscape:collect="always"
       id="meshgradient5267"
       gradientUnits="userSpaceOnUse"
       x="0"
       y="-27.638008"
       gradientTransform="matrix(0.9994794,0,0,1,2.4999999e-5,8.1450191e-6)">
      <meshrow
         id="meshrow5293">
        <meshpatch
           id="meshpatch5295">
          <stop
             path="c 640.333,0  1280.67,0  1921,0"
             style="stop-color:#f3f6dc;stop-opacity:1"
             id="stop5297" />
          <stop
             path="c 0,360  7.05999,709.41  0,1080"
             style="stop-color:#04a9f3;stop-opacity:1"
             id="stop5299" />
          <stop
             path="c -640.333,0  -1280.67,0  -1921,0"
             style="stop-color:#0ca0e4;stop-opacity:1"
             id="stop5301" />
          <stop
             path="c 0,-360  0,-720  0,-1080"
             style="stop-color:#12b3fc;stop-opacity:1"
             id="stop5303" />
        </meshpatch>
      </meshrow>
    </meshgradient>
  </defs>
  <sodipodi:namedview
     id="base"
     pagecolor="#ffffff"
     bordercolor="#666666"
     borderopacity="1.0"
     inkscape:pageopacity="0.0"
     inkscape:pageshadow="2"
     inkscape:zoom="0.26558118"
     inkscape:cx="679.07329"
     inkscape:cy="32.246561"
     inkscape:document-units="px"
     inkscape:current-layer="layer1"
     showgrid="false"
     units="px"
     inkscape:window-width="1920"
     inkscape:window-height="1015"
     inkscape:window-x="0"
     inkscape:window-y="24"
     inkscape:window-maximized="1"
     inkscape:snap-global="false" />
  <metadata
     id="metadata5317">
    <rdf:RDF>
      <cc:Work
         rdf:about="">
        <dc:format>image/svg+xml</dc:format>
        <dc:type
           rdf:resource="http://purl.org/dc/dcmitype/StillImage" />
        <dc:title></dc:title>
      </cc:Work>
    </rdf:RDF>
  </metadata>
  <g
     inkscape:label="BG"
     inkscape:groupmode="layer"
     id="layer1"
     transform="translate(0,27.637953)">
    <rect
       style="opacity:1;fill:url(#meshgradient5267);fill-opacity:1;fill-rule:nonzero;stroke:none;stroke-width:2.99921894;stroke-linecap:round;stroke-miterlimit:4;stroke-dasharray:none;stroke-dashoffset:0;stroke-opacity:1"
       id="rect5860"
       width="1920"
       height="1080.0001"
       x="2.4999999e-05"
       y="-27.638" />
    <path
       sodipodi:type="star"
       style="opacity:0.46000001;fill:url(#linearGradient5221);fill-opacity:1;fill-rule:nonzero;stroke:none;stroke-width:1.72158515;stroke-linecap:round;stroke-miterlimit:4;stroke-dasharray:none;stroke-dashoffset:0;stroke-opacity:1"
       id="path5172"
       sodipodi:sides="5"
       sodipodi:cx="210.41579"
       sodipodi:cy="-31.507545"
       sodipodi:r1="27.778549"
       sodipodi:r2="23.233248"
       sodipodi:arg1="-1.0959917"
       sodipodi:arg2="-0.46767311"
       inkscape:flatsided="true"
       inkscape:rounded="0"
       inkscape:randomized="0"
       d="m 177.58274,-149.23662 c 11.30929,28.92602 21.7328,53.892359 35.56152,80.882177 3.61815,23.332538 4.0496,44.013717 1.37489,64.4653655 -12.56205,-12.9753485 -24.67556,-26.4676855 -34.5322,-41.3888325 -2.30576,-26.893692 -5.78408,-61.2771 -10.00446,-88.95824 2.50682,-3.32626 6.33617,-11.88971 7.60025,-15.00047 z"
       inkscape:transform-center-x="-245.8301"
       inkscape:transform-center-y="-49.597184"
       transform="matrix(13.48343,5.044268,-10.465664,1.7145953,-2055.7878,-202.35966)"
       inkscape:path-effect="#path-effect5235" />
    <g
       transform="matrix(12.658822,0,0,12.658822,3718.6838,-3773.7942)"
       id="layer1-7"
       inkscape:label="Layer 1">
      <g
         transform="matrix(0.95895363,0,0,0.95895363,-9.3345132,13.828529)"
         id="g5206">
        <g
           id="g16415"
           transform="matrix(1.2932505,0,0,1.2932505,438.31595,494.68033)"
           clip-path="url(#clipPath5202)">
          <rect
             y="-146.44901"
             x="-540.09979"
             height="28.734848"
             width="51.363541"
             id="rect16393"
             style="opacity:1;fill:#20c9fb;fill-opacity:1;fill-rule:nonzero;stroke:none;stroke-width:1;stroke-linecap:round;stroke-miterlimit:4;stroke-dasharray:none;stroke-dashoffset:0;stroke-opacity:1"
             d="m -539.89109,-146.69622 c 17.12118,0 34.24236,0 51.36354,0 0,9.57829 0,19.15657 0,28.73485 -17.12118,0 -34.24236,0 -51.36354,0 0,-9.57828 0,-19.15656 0,-28.73485 z" />
          <rect
             style="opacity:1;fill:#5570e8;fill-opacity:1;fill-rule:nonzero;stroke:none;stroke-width:1;stroke-linecap:round;stroke-miterlimit:4;stroke-dasharray:none;stroke-dashoffset:0;stroke-opacity:1"
             id="rect16395"
             width="51.363541"
             height="20.114393"
             x="-540.09979"
             y="-117.71416"
             d="m -539.89109,-117.96137 c 17.12118,0 34.24236,0 51.36354,0 0,6.7048 0,13.4096 0,20.114395 -17.12118,0 -34.24236,0 -51.36354,0 0,-6.704795 0,-13.409595 0,-20.114395 z" />
          <rect
             style="opacity:1;fill:#ffe578;fill-opacity:1;fill-rule:nonzero;stroke:none;stroke-width:1;stroke-linecap:round;stroke-miterlimit:4;stroke-dasharray:none;stroke-dashoffset:0;stroke-opacity:1"
             id="rect16399"
             width="51.363541"
             height="28.734848"
             x="-540.09979"
             y="-146.44901"
             d="m -539.89109,-146.69622 c 17.12118,0 34.24236,0 51.36354,0 0,9.57829 0,19.15657 0,28.73485 -17.12118,0 -34.24236,0 -51.36354,0 0,-9.57828 0,-19.15656 0,-28.73485 z" />
          <rect
             y="-146.44901"
             x="-540.09979"
             height="18.835354"
             width="51.363541"
             id="rect16401"
             style="opacity:1;fill:#fdce00;fill-opacity:1;fill-rule:nonzero;stroke:none;stroke-width:1;stroke-linecap:round;stroke-miterlimit:4;stroke-dasharray:none;stroke-dashoffset:0;stroke-opacity:1"
             d="m -539.89109,-146.69622 c 17.12118,0 34.24236,0 51.36354,0 0,6.27846 0,12.55691 0,18.83536 -17.12118,0 -34.24236,0 -51.36354,0 0,-6.27845 0,-12.5569 0,-18.83536 z" />
          <rect
             style="opacity:1;fill:#fd8200;fill-opacity:1;fill-rule:nonzero;stroke:none;stroke-width:1;stroke-linecap:round;stroke-miterlimit:4;stroke-dasharray:none;stroke-dashoffset:0;stroke-opacity:1"
             id="rect16403"
             width="51.363541"
             height="10.350072"
             x="-540.09979"
             y="-146.44901"
             d="m -539.89109,-146.69622 c 17.12118,0 34.24236,0 51.36354,0 0,3.45003 0,6.90005 0,10.35008 -17.12118,0 -34.24236,0 -51.36354,0 0,-3.45003 0,-6.90005 0,-10.35008 z" />
          <path
             inkscape:connector-curvature="0"
             id="path16397"
             d="m -526.26562,-117.71484 a 12.464466,6.077755 0 0 0 -0.0488,0.48284 12.464466,6.077755 0 0 0 12.46484,6.07794 12.464466,6.077755 0 0 0 12.46484,-6.07794 12.464466,6.077755 0 0 0 -0.0449,-0.48284 h -24.83593 z"
             style="opacity:1;fill:#fdce00;fill-opacity:1;fill-rule:nonzero;stroke:none;stroke-width:1;stroke-linecap:round;stroke-miterlimit:4;stroke-dasharray:none;stroke-dashoffset:0;stroke-opacity:1" />
          <rect
             y="-146.44901"
             x="-540.09979"
             height="5.046771"
             width="51.363541"
             id="rect16405"
             style="opacity:1;fill:#4111ac;fill-opacity:1;fill-rule:nonzero;stroke:none;stroke-width:1;stroke-linecap:round;stroke-miterlimit:4;stroke-dasharray:none;stroke-dashoffset:0;stroke-opacity:1"
             d="m -539.89109,-146.69622 c 17.12118,0 34.24236,0 51.36354,0 0,1.68226 0,3.36452 0,5.04678 -17.12118,0 -34.24236,0 -51.36354,0 0,-1.68226 0,-3.36452 0,-5.04678 z" />
          <path
             id="circle16409"
             d="m -513.84961,-129.18945 a 12.464466,12.464466 0 0 0 -12.41601,11.47461 h 24.83593 a 12.464466,12.464466 0 0 0 -12.41992,-11.47461 z"
             style="opacity:1;fill:#fdfc00;fill-opacity:1;fill-rule:nonzero;stroke:none;stroke-width:1;stroke-linecap:round;stroke-miterlimit:4;stroke-dasharray:none;stroke-dashoffset:0;stroke-opacity:1"
             inkscape:connector-curvature="0" />
        </g>
        <path
           transform="matrix(1.2092315,0.07338634,-0.07338876,1.2092097,-485.16193,357.20605)"
           inkscape:transform-center-y="2.2705275"
           inkscape:transform-center-x="-0.25982864"
           d="m 223.11516,-56.213289 14.72151,29.149069 -23.17322,23.0085442 -29.04334,-14.9290072 5.22344,-32.235177 z"
           inkscape:randomized="0"
           inkscape:rounded="0"
           inkscape:flatsided="true"
           sodipodi:arg2="-0.46767311"
           sodipodi:arg1="-1.0959917"
           sodipodi:r2="23.233248"
           sodipodi:r1="27.778549"
           sodipodi:cy="-31.507545"
           sodipodi:cx="210.41579"
           sodipodi:sides="5"
           id="path16427-1"
           style="opacity:1;fill:none;fill-opacity:1;fill-rule:nonzero;stroke:#ffbd78;stroke-width:1.72158515;stroke-linecap:round;stroke-miterlimit:4;stroke-dasharray:none;stroke-dashoffset:0;stroke-opacity:1"
           sodipodi:type="star" />
      </g>
    </g>
  </g>
</svg>
